{
  "accessors": [
    {
      "bufferView": 2,
      "componentType": 5126,
      "count": 4,
      "max": [
        0.13726499676704407,
        4.107295036315918,
        4.084441184997559
      ],
      "min": [
        -1.413902997970581,
        3.4770030975341797,
        0.13942700624465942
      ],
      "type": "VEC3"
    },
    {
      "bufferView": 2,
      "byteOffset": 48,
      "componentType": 5126,
      "count": 4,
      "max": [
        -0.36611825227737427,
        -0.9305463433265686,
        0.006400318816304207
      ],
      "min": [
        -0.36611825227737427,
        -0.9305463433265686,
        0.006400318816304207
      ],
      "type": "VEC3"
    },
    {
      "bufferView": 1,
      "componentType": 5126,
      "count": 4,
      "max": [
        0.999442994594574,
        1.0
      ],
      "min": [
        0.08633899688720703,
        0.0
      ],
      "type": "VEC2"
    },
    {
      "bufferView": 0,
      "componentType": 5125,
      "count": 6,
      "type": "SCALAR"
    },
    {
      "bufferView": 2,
      "byteOffset": 96,
      "componentType": 5126,
      "count": 4,
      "max": [
        -2.424349069595337,
        4.3187079429626465,
        4.084441184997559
      ],
      "min": [
        -3.899467945098877,
        3.518812894821167,
        0.13942700624465942
      ],
      "type": "VEC3"
    },
    {
      "bufferView": 2,
      "byteOffset": 144,
      "componentType": 5126,
      "count": 4,
      "max": [
        0.46918705105781555,
        -0.8830756545066833,
        0.006399823818355799
      ],
      "min": [
        0.46918705105781555,
        -0.8830756545066833,
        0.006399823818355799
      ],
      "type": "VEC3"
    },
    {
      "bufferView": 1,
      "byteOffset": 32,
      "componentType": 5126,
      "count": 4,
      "max": [
        0.8478900194168091,
        0.9938380122184753
      ],
      "min": [
        0.1521099954843521,
        0.0
      ],
      "type": "VEC2"
    },
    {
      "bufferView": 0,
      "byteOffset": 24,
      "componentType": 5125,
      "count": 6,
      "type": "SCALAR"
    },
    {
      "bufferView": 2,
      "byteOffset": 192,
      "componentType": 5126,
      "count": 9192,
      "max": [
        -2.376063108444214,
        4.503395080566406,
        4.122537136077881
      ],
      "min": [
        -3.9789040088653564,
        3.3807709217071533,
        0.11281300336122513
      ],
      "type": "VEC3"
    },
    {
      "bufferView": 2,
      "byteOffset": 110496,
      "componentType": 5126,
      "count": 9192,
      "max": [
        0.9997835755348206,
        0.9999973773956299,
        1.0
      ],
      "min": [
        -0.9954480528831482,
        -0.9961841106414795,
        -1.0
      ],
      "type": "VEC3"
    },
    {
      "bufferView": 1,
      "byteOffset": 64,
      "componentType": 5126,
      "count": 9192,
      "max": [
        0.0,
        0.0
      ],
      "min": [
        0.0,
        0.0
      ],
      "type": "VEC2"
    },
    {
      "bufferView": 0,
      "byteOffset": 48,
      "componentType": 5125,
      "count": 24729,
      "type": "SCALAR"
    },
    {
      "bufferView": 2,
      "byteOffset": 220800,
      "componentType": 5126,
      "count": 9196,
      "max": [
        0.202565997838974,
        4.349031925201416,
        4.122537136077881
      ],
      "min": [
        -1.461258053779602,
        3.280395984649658,
        0.11281300336122513
      ],
      "type": "VEC3"
    },
    {
      "bufferView": 2,
      "byteOffset": 331152,
      "componentType": 5126,
      "count": 9196,
      "max": [
        0.9998416304588318,
        0.9998411536216736,
        1.0
      ],
      "min": [
        -0.9998450875282288,
        -0.9998398423194885,
        -1.0
      ],
      "type": "VEC3"
    },
    {
      "bufferView": 1,
      "byteOffset": 73600,
      "componentType": 5126,
      "count": 9196,
      "max": [
        0.0,
        0.0
      ],
      "min": [
        0.0,
        0.0
      ],
      "type": "VEC2"
    },
    {
      "bufferView": 0,
      "byteOffset": 98964,
      "componentType": 5125,
      "count": 24735,
      "type": "SCALAR"
    }
  ],
  "asset": {
    "extras": {
      "author": "budistudios.com (https://sketchfab.com/budistudios)",
      "license": "CC-BY-4.0 (http://creativecommons.org/licenses/by/4.0/)",
      "source": "https://sketchfab.com/3d-models/roll-up-banner-3d-brand-aqua-aa5a7040dd0e40f7ad63de27deda3a36",
      "title": "Roll Up Banner 3D (Brand Aqua)"
    },
    "generator": "Sketchfab-13.4.0",
    "version": "2.0"
  },
  "bufferViews": [
    {
      "buffer": 0,
      "byteLength": 197904,
      "name": "floatBufferViews",
      "target": 34963
    },
    {
      "buffer": 0,
      "byteLength": 147168,
      "byteOffset": 197904,
      "byteStride": 8,
      "name": "floatBufferViews",
      "target": 34962
    },
    {
      "buffer": 0,
      "byteLength": 441504,
      "byteOffset": 345072,
      "byteStride": 12,
      "name": "floatBufferViews",
      "target": 34962
    }
  ],
  "buffers": [
    {
      "byteLength": 786576,
      "uri": "scene.bin"
    }
  ],
  "images": [
    {
      "uri": "textures/Banner_1_baseColor.jpeg"
    },
    {
      "uri": "textures/Banner_2_baseColor.jpeg"
    }
  ],
  "materials": [
    {
      "doubleSided": true,
      "name": "Banner_1",
      "pbrMetallicRoughness": {
        "baseColorFactor": [
          0.8883836598359156,
          0.8883836598359156,
          0.8883836598359156,
          1.0
        ],
        "baseColorTexture": {
          "index": 0
        },
        "metallicFactor": 0.0,
        "roughnessFactor": 0.843491542
      }
    },
    {
      "doubleSided": true,
      "name": "Banner_2",
      "pbrMetallicRoughness": {
        "baseColorFactor": [
          0.75,
          0.75,
          0.75,
          1.0
        ],
        "baseColorTexture": {
          "index": 1
        },
        "metallicFactor": 0.0,
        "roughnessFactor": 0.843491542
      }
    },
    {
      "doubleSided": true,
      "name": "Material.002",
      "pbrMetallicRoughness": {
        "baseColorFactor": [
          0.651374896449826,
          0.6131340745780468,
          0.6131340745780468,
          1.0
        ],
        "metallicFactor": 0.6262876229718033,
        "roughnessFactor": 0.8411051475
      }
    }
  ],
  "meshes": [
    {
      "name": "Object_0",
      "primitives": [
        {
          "attributes": {
            "NORMAL": 1,
            "POSITION": 0,
            "TEXCOORD_0": 2
          },
          "indices": 3,
          "material": 0,
          "mode": 4
        }
      ]
    },
    {
      "name": "Object_1",
      "primitives": [
        {
          "attributes": {
            "NORMAL": 5,
            "POSITION": 4,
            "TEXCOORD_0": 6
          },
          "indices": 7,
          "material": 1,
          "mode": 4
        }
      ]
    },
    {
      "name": "Object_2",
      "primitives": [
        {
          "attributes": {
            "NORMAL": 9,
            "POSITION": 8,
            "TEXCOORD_0": 10
          },
          "indices": 11,
          "material": 2,
          "mode": 4
        }
      ]
    },
    {
      "name": "Object_3",
      "primitives": [
        {
          "attributes": {
            "NORMAL": 13,
            "POSITION": 12,
            "TEXCOORD_0": 14
          },
          "indices": 15,
          "material": 2,
          "mode": 4
        }
      ]
    }
  ],
  "nodes": [
    {
      "children": [
        1
      ],
      "matrix": [
        1.0,
        0.0,
        0.0,
        0.0,
        0.0,
        2.220446049250313e-16,
        -1.0,
        0.0,
        0.0,
        1.0,
        2.220446049250313e-16,
        0.0,
        0.0,
        0.0,
        0.0,
        1.0
      ],
      "name": "Sketchfab_model"
    },
    {
      "children": [
        2,
        3,
        4,
        5
      ],
      "name": "Roll Up Banner Brand 3D Model.obj.cleaner.materialmerger.gles"
    },
    {
      "mesh": 0,
      "name": "Object_2"
    },
    {
      "mesh": 1,
      "name": "Object_3"
    },
    {
      "mesh": 2,
      "name": "Object_4"
    },
    {
      "mesh": 3,
      "name": "Object_5"
    }
  ],
  "samplers": [
    {
      "magFilter": 9729,
      "minFilter": 9987,
      "wrapS": 10497,
      "wrapT": 10497
    }
  ],
  "scene": 0,
  "scenes": [
    {
      "name": "Sketchfab_Scene",
      "nodes": [
        0
      ]
    }
  ],
  "textures": [
    {
      "sampler": 0,
      "source": 0
    },
    {
      "sampler": 0,
      "source": 1
    }
  ]
}
